<svg xmlns="http://www.w3.org/2000/svg" viewBox="0 0 220 220" width="220" height="220" role="img" aria-labelledby="t">
<title id="t">Pressed flower A</title>
<path d="M110 214 C112 170, 118 140, 112 96" fill="none" stroke="#3F5F33" stroke-width="1.75" stroke-linecap="round"/><g transform="translate(113 160) rotate(-150)"><path d="M0 0 Q18 -11 40 0 Q18 11 0 0Z" fill="#7E9C5F" fill-opacity="0.85" stroke="#3F5F33" stroke-width="1.25" stroke-linejoin="round"/><path d="M1 0 L32.8 0" stroke="#3F5F33" stroke-width="0.9" fill="none"/></g><g transform="translate(115 190) rotate(30)"><path d="M0 0 Q15.3 -10 34 0 Q15.3 10 0 0Z" fill="#7E9C5F" fill-opacity="0.85" stroke="#3F5F33" stroke-width="1.25" stroke-linejoin="round"/><path d="M1 0 L27.9 0" stroke="#3F5F33" stroke-width="0.9" fill="none"/></g><g transform="translate(112 74) rotate(-90)"><path d="M0 0 C14 -14, 34 -18, 44 -4 C50 4, 44 16, 30 18 C16 20, 6 12, 0 0Z" fill="#DFE5CF" stroke="#2A4430" stroke-width="1.25" stroke-linejoin="round"/><path d="M4 2 L32 4" stroke="#2A4430" stroke-width="0.6"/></g><g transform="translate(112 74) rotate(-18)"><path d="M0 0 C14 -14, 34 -18, 44 -4 C50 4, 44 16, 30 18 C16 20, 6 12, 0 0Z" fill="#DFE5CF" stroke="#2A4430" stroke-width="1.25" stroke-linejoin="round"/><path d="M4 2 L32 4" stroke="#2A4430" stroke-width="0.6"/></g><g transform="translate(112 74) rotate(54)"><path d="M0 0 C14 -14, 34 -18, 44 -4 C50 4, 44 16, 30 18 C16 20, 6 12, 0 0Z" fill="#DFE5CF" stroke="#2A4430" stroke-width="1.25" stroke-linejoin="round"/><path d="M4 2 L32 4" stroke="#2A4430" stroke-width="0.6"/></g><g transform="translate(112 74) rotate(126)"><path d="M0 0 C14 -14, 34 -18, 44 -4 C50 4, 44 16, 30 18 C16 20, 6 12, 0 0Z" fill="#DFE5CF" stroke="#2A4430" stroke-width="1.25" stroke-linejoin="round"/><path d="M4 2 L32 4" stroke="#2A4430" stroke-width="0.6"/></g><g transform="translate(112 74) rotate(198)"><path d="M0 0 C14 -14, 34 -18, 44 -4 C50 4, 44 16, 30 18 C16 20, 6 12, 0 0Z" fill="#DFE5CF" stroke="#2A4430" stroke-width="1.25" stroke-linejoin="round"/><path d="M4 2 L32 4" stroke="#2A4430" stroke-width="0.6"/></g><circle cx="112" cy="74" r="7" fill="#D4B24A" stroke="#6E5637" stroke-width="1"/><circle cx="107.5" cy="62.8" r="1.1" fill="#6E5637"/><circle cx="114.2" cy="85.3" r="1.1" fill="#6E5637"/><circle cx="121.8" cy="79.8" r="1.1" fill="#6E5637"/><circle cx="110" cy="63.4" r="1.1" fill="#6E5637"/><circle cx="120.2" cy="68.5" r="1.1" fill="#6E5637"/><circle cx="114.2" cy="62.2" r="1.1" fill="#6E5637"/><circle cx="107.2" cy="66.3" r="1.1" fill="#6E5637"/><circle cx="102" cy="76.2" r="1.1" fill="#6E5637"/><circle cx="120.1" cy="67.9" r="1.1" fill="#6E5637"/>
</svg>
